<svg width="37" height="37" viewBox="0 0 29 29" fill="none" xmlns="http://www.w3.org/2000/svg">
<circle cx="14.3113" cy="14.3496" r="14.2852" fill="#151515"/>
<g clip-path="url(#clip0)">
<path d="M17.3765 7.46574C16.09 6.42079 14.4064 6.01836 12.7524 6.36342C10.6037 6.81104 8.90848 8.5729 8.53422 10.7464C8.22074 12.5671 8.82099 14.4077 10.1396 15.6708C10.841 16.342 11.2673 17.2732 11.385 18.2187H16.4369C16.495 17.3246 16.9194 16.4157 17.6774 15.7024C18.7719 14.6715 19.3998 13.2183 19.3998 11.7156C19.3998 10.0601 18.6625 8.51119 17.3765 7.46574ZM13.9252 11.7156C14.7485 11.7156 15.4183 12.3853 15.4183 13.2086C15.4183 13.8566 15.001 14.4039 14.4229 14.61V15.1994C14.4229 15.4745 14.2003 15.6971 13.9252 15.6971C13.6501 15.6971 13.4275 15.4745 13.4275 15.1994V14.61C12.8495 14.4039 12.4322 13.8566 12.4322 13.2086C12.4322 12.9335 12.6548 12.7109 12.9299 12.7109C13.2049 12.7109 13.4275 12.9335 13.4275 13.2086C13.4275 13.4832 13.6506 13.7063 13.9252 13.7063C14.1998 13.7063 14.4229 13.4832 14.4229 13.2086C14.4229 12.934 14.1998 12.7109 13.9252 12.7109C13.1019 12.7109 12.4322 12.0412 12.4322 11.2179C12.4322 10.5699 12.8495 10.0226 13.4275 9.81646V9.2271C13.4275 8.95201 13.6501 8.72941 13.9252 8.72941C14.2003 8.72941 14.4229 8.95201 14.4229 9.2271V9.81646C15.001 10.0226 15.4183 10.5699 15.4183 11.2179C15.4183 11.493 15.1957 11.7156 14.9206 11.7156C14.6455 11.7156 14.4229 11.493 14.4229 11.2179C14.4229 10.9433 14.1998 10.7202 13.9252 10.7202C13.6506 10.7202 13.4275 10.9433 13.4275 11.2179C13.4275 11.4925 13.6506 11.7156 13.9252 11.7156Z" fill="white"/>
<path d="M11.5285 22.2002C11.7346 22.7783 12.2819 23.2288 12.9298 23.2288H14.9206C15.5686 23.2288 16.1159 22.7783 16.322 22.2002H11.5285Z" fill="white"/>
<path d="M16.4137 19.2141H11.4368C10.887 19.2141 10.4414 19.6597 10.4414 20.2095C10.4414 20.7592 10.887 21.2049 11.4368 21.2049H16.4137C16.9634 21.2049 17.4091 20.7592 17.4091 20.2095C17.4091 19.6597 16.9634 19.2141 16.4137 19.2141Z" fill="white"/>
</g>
<defs>
<clipPath id="clip0">
<rect width="16.9878" height="16.9878" fill="white" transform="translate(5.43131 6.24178)"/>
</clipPath>
</defs>
</svg>
