<svg width="37" height="274" viewBox="0 0 37 274" fill="none" xmlns="http://www.w3.org/2000/svg">
<path d="M18 25L18 270" stroke="#DBDBDB"/>
<circle cx="18.5" cy="85.5" r="5.5" fill="black"/>
<circle cx="18.5" cy="146.5" r="5" fill="white" stroke="#DBDBDB"/>
<circle cx="18.5" cy="207.5" r="5" fill="white" stroke="#DBDBDB"/>
<circle cx="18.5" cy="268.5" r="5" fill="white" stroke="#DBDBDB"/>
<circle cx="18.5" cy="18.5" r="18.5" fill="#151515"/>
<path d="M22.4696 9.58508C20.8035 8.23182 18.6231 7.71065 16.4812 8.15753C13.6985 8.73722 11.5031 11.0189 11.0184 13.8337C10.6124 16.1915 11.3898 18.5752 13.0974 20.211C14.0058 21.0803 14.5579 22.2862 14.7103 23.5107H21.2527C21.3279 22.3527 21.8776 21.1756 22.8592 20.2519C24.2766 18.9169 25.0899 17.035 25.0899 15.0888C25.0899 12.9449 24.135 10.939 22.4696 9.58508ZM18 15.0888C19.0662 15.0888 19.9336 15.9561 19.9336 17.0224C19.9336 17.8615 19.3931 18.5703 18.6445 18.8372V19.6005C18.6445 19.9567 18.3563 20.245 18 20.245C17.6438 20.245 17.3555 19.9567 17.3555 19.6005V18.8372C16.6069 18.5703 16.0664 17.8615 16.0664 17.0224C16.0664 16.6661 16.3547 16.3778 16.7109 16.3778C17.0672 16.3778 17.3555 16.6661 17.3555 17.0224C17.3555 17.378 17.6444 17.6669 18 17.6669C18.3556 17.6669 18.6445 17.378 18.6445 17.0224C18.6445 16.6668 18.3556 16.3778 18 16.3778C16.9338 16.3778 16.0664 15.5105 16.0664 14.4442C16.0664 13.6051 16.6069 12.8963 17.3555 12.6294V11.8661C17.3555 11.5099 17.6438 11.2216 18 11.2216C18.3563 11.2216 18.6445 11.5099 18.6445 11.8661V12.6294C19.3931 12.8963 19.9336 13.6051 19.9336 14.4442C19.9336 14.8005 19.6453 15.0888 19.2891 15.0888C18.9328 15.0888 18.6445 14.8005 18.6445 14.4442C18.6445 14.0886 18.3556 13.7997 18 13.7997C17.6444 13.7997 17.3555 14.0886 17.3555 14.4442C17.3555 14.7999 17.6444 15.0888 18 15.0888Z" fill="white"/>
<path d="M14.8961 28.6669C15.163 29.4155 15.8717 29.999 16.7109 29.999H19.2891C20.1282 29.999 20.837 29.4155 21.1039 28.6669H14.8961Z" fill="white"/>
<path d="M21.2227 24.7997H14.7773C14.0654 24.7997 13.4883 25.3769 13.4883 26.0888C13.4883 26.8007 14.0654 27.3779 14.7773 27.3779H21.2227C21.9346 27.3779 22.5117 26.8007 22.5117 26.0888C22.5117 25.3768 21.9346 24.7997 21.2227 24.7997Z" fill="white"/>
</svg>
