<svg width="121" height="40" viewBox="0 0 132 44" fill="none" xmlns="http://www.w3.org/2000/svg">
<path d="M62.668 35V20.524H67.876V16.324H52.616V20.524H57.852V35H62.668ZM74.064 35.336C76.136 35.336 78.376 34.748 79.72 33.544L77.9 30.856C77.144 31.584 75.492 32.004 74.54 32.004C72.58 32.004 71.404 30.856 71.152 29.596H80.784V28.672C80.784 24.08 77.872 21.14 73.868 21.14C69.64 21.14 66.672 24.304 66.672 28.224C66.672 32.62 69.892 35.336 74.064 35.336ZM76.668 26.796H71.096C71.264 25.816 71.992 24.472 73.868 24.472C75.856 24.472 76.556 25.844 76.668 26.796ZM87.2198 35V16.324H82.9078V35H87.2198ZM101.237 35V31.276H95.5813L101.125 24.528V21.476H89.8413V25.228H95.2733L89.8413 31.836V35H101.237ZM106.037 20.272C107.409 20.272 108.501 19.152 108.501 17.78C108.501 16.408 107.409 15.316 106.037 15.316C104.665 15.316 103.573 16.408 103.573 17.78C103.573 19.152 104.665 20.272 106.037 20.272ZM108.193 35V21.476H103.881V35H108.193ZM115.63 35V26.376C116.19 25.62 117.674 25.144 118.794 25.144C119.242 25.144 119.606 25.2 119.858 25.256V21.112C118.234 21.112 116.526 22.036 115.63 23.128V21.476H111.318V35H115.63Z" fill="#2F2F31"/>
<circle cx="22" cy="22" r="22" fill="#151515"/>
<path d="M10 14C10 11.7909 11.7909 10 14 10H30C32.2091 10 34 11.7909 34 14C34 16.2091 32.2091 18 30 18H14C11.7909 18 10 16.2091 10 14Z" fill="white"/>
<path d="M22 19C24.2091 19 26 20.7909 26 23L26 33C26 35.2091 24.2091 37 22 37C19.7909 37 18 35.2091 18 33L18 23C18 20.7909 19.7909 19 22 19Z" fill="white"/>
</svg>
