<svg width="19" height="19" viewBox="0 0 19 19" fill="none" xmlns="http://www.w3.org/2000/svg">
<path d="M18.3 7.50691L18.7 2.10691C18.8 0.906911 17.8 -0.0930949 16.6 0.00690512L11.2 0.406899C10.2 0.506899 9.4 0.906911 8.7 1.60691L0.6 9.70689C-0.2 10.5069 -0.2 11.7069 0.6 12.5069L6.3 18.2069C7.1 19.0069 8.3 19.0069 9.1 18.2069L17.2 10.1069C17.8 9.40691 18.2 8.5069 18.3 7.50691ZM11.8 6.9069C11 6.1069 11 4.90691 11.8 4.10691C12.6 3.30691 13.8 3.30691 14.6 4.10691C15.4 4.90691 15.4 6.1069 14.6 6.9069C13.8 7.7069 12.6 7.7069 11.8 6.9069Z" fill="white"/>
</svg>
